<svg width="48" length="48" viewBox="0 0 90 120" fill="none">
    <g clip-path="url(#clip0_134_46)">
        <path d="M90 74.8444C90 83.7754 87.3608 92.5057 82.4162 99.9315C77.4715 107.357 70.4434 113.145 62.2208 116.563C53.9981 119.98 44.9501 120.875 36.221 119.132C27.4918 117.39 19.4736 113.089 13.1802 106.774C6.88685 100.459 2.60102 92.4132 0.864683 83.6538C-0.871652 74.8945 0.0194978 65.8152 3.42544 57.5641C6.83138 49.313 12.5991 42.2607 19.9994 37.2989C27.3996 32.3372 36.0999 29.6888 45 29.6888C56.9348 29.6888 68.3807 34.4463 76.8198 42.9146C85.259 51.3829 90 62.8684 90 74.8444Z" fill="#ffffff"/>
        <path d="M90 7.36394C90 8.82039 89.5696 10.2441 88.7632 11.4551C87.9569 12.6661 86.8107 13.61 85.4698 14.1673C84.1288 14.7247 82.6533 14.8705 81.2298 14.5864C79.8062 14.3022 78.4986 13.6009 77.4723 12.571C76.446 11.5412 75.747 10.229 75.4639 8.80057C75.1807 7.37211 75.3261 5.89147 75.8815 4.54588C76.4369 3.2003 77.3775 2.05021 78.5844 1.24105C79.7912 0.431888 81.21 0 82.6615 0C84.6078 0 86.4744 0.775842 87.8506 2.15685C89.2268 3.53785 90 5.4109 90 7.36394Z" fill="#ffffff"/>
    </g>
    <defs>
        <clipPath id="clip0_134_46">
            <rect width="90" height="120" fill="white"/>
        </clipPath>
    </defs>
</svg>